{
  "source": "C:\\Users\\Peter\\Desktop\\stuff\\MIUN\\quantitative_research\\video_compression\\videos\\BVI-HD\\BVI-HD_CDVL_videos\\ORIG\\Rowing_1920x1080_30fps.mp4",
  "output": "C:\\Users\\Peter\\Desktop\\stuff\\MIUN\\quantitative_research\\video_compression\\compressed_videos\\BVI-HD\\vp9\\2.5\\Rowing_1920x1080_30fps_vp9.webm",
  "codec": "vp9",
  "ok": "Input #0, mov,mp4,m4a,3gp,3g2,mj2, from 'C:\\Users\\Peter\\Desktop\\stuff\\MIUN\\quantitative_research\\video_compression\\videos\\BVI-HD\\BVI-HD_CDVL_videos\\ORIG\\Rowing_1920x1080_30fps.mp4':\n  Metadata:\n    major_brand     : isom\n    minor_version   : 512\n    compatible_brands: isomiso2avc1mp41\n    encoder         : Lavf54.28.101\n  Duration: 00:00:05.00, start: 0.000000, bitrate: 259220 kb/s\n  Stream #0:0[0x1](und): Video: h264 (High 4:4:4 Predictive) (avc1 / 0x31637661), yuv420p(progressive), 1920x1080, 259216 kb/s, 30 fps, 30 tbr, 30 tbn (default)\n    Metadata:\n      handler_name    : VideoHandler\n      vendor_id       : [0][0][0][0]\n[out#0/webm @ 000001837d149700] Codec AVOption b:a (set bitrate (in bits/s)) has not been used for any stream. The most likely reason is either wrong type (e.g. a video option with no video streams) or that it is a private option of some decoder which was not actually used for any stream.\nStream mapping:\n  Stream #0:0 -> #0:0 (h264 (native) -> vp9 (libvpx-vp9))\nPress [q] to stop, [?] for help\n[libvpx-vp9 @ 000001837dbc0440] v1.15.2-100-g40561f514\nOutput #0, webm, to 'C:\\Users\\Peter\\Desktop\\stuff\\MIUN\\quantitative_research\\video_compression\\compressed_videos\\BVI-HD\\vp9\\2.5\\Rowing_1920x1080_30fps_vp9.webm':\n  Metadata:\n    major_brand     : isom\n    minor_version   : 512\n    compatible_brands: isomiso2avc1mp41\n    encoder         : Lavf62.3.100\n  Stream #0:0(und): Video: vp9, yuv420p(tv, progressive), 1920x1080, q=2-31, 2500 kb/s, 30 fps, 1k tbn (default)\n    Metadata:\n      encoder         : Lavc62.11.100 libvpx-vp9\n      handler_name    : VideoHandler\n      vendor_id       : [0][0][0][0]\n    Side data:\n      cpb: bitrate max/min/avg: 0/0/0 buffer size: 2500000 vbv_delay: N/A\nframe=    0 fps=0.0 q=0.0 size=       0KiB time=N/A bitrate=N/A speed=N/A elapsed=0:00:00.53    \nframe=    2 fps=1.6 q=38.0 size=       1KiB time=00:00:00.06 bitrate=  76.1kbits/s speed=0.055x elapsed=0:00:01.21    \nframe=    5 fps=2.9 q=63.0 size=       1KiB time=00:00:00.16 bitrate=  30.4kbits/s speed=0.0956x elapsed=0:00:01.74    \nframe=    9 fps=4.0 q=63.0 size=       1KiB time=00:00:00.30 bitrate=  16.9kbits/s speed=0.133x elapsed=0:00:02.24    \nframe=   12 fps=4.3 q=62.0 size=       1KiB time=00:00:00.40 bitrate=  12.7kbits/s speed=0.144x elapsed=0:00:02.76    \nframe=   15 fps=4.5 q=63.0 size=       1KiB time=00:00:00.50 bitrate=  10.1kbits/s speed=0.152x elapsed=0:00:03.29    \nframe=   18 fps=4.7 q=63.0 size=       1KiB time=00:00:00.60 bitrate=   8.5kbits/s speed=0.157x elapsed=0:00:03.81    \nframe=   21 fps=4.8 q=41.0 size=       1KiB time=00:00:00.70 bitrate=   7.2kbits/s speed=0.162x elapsed=0:00:04.33    \nframe=   24 fps=4.9 q=63.0 size=       1KiB time=00:00:00.80 bitrate=   6.3kbits/s speed=0.165x elapsed=0:00:04.85    \nframe=   27 fps=5.0 q=63.0 size=       1KiB time=00:00:00.90 bitrate=   5.6kbits/s speed=0.167x elapsed=0:00:05.37    \nframe=   30 fps=5.1 q=63.0 size=       1KiB time=00:00:01.00 bitrate=   5.1kbits/s speed=0.169x elapsed=0:00:05.91    \nframe=   33 fps=5.1 q=63.0 size=       1KiB time=00:00:01.10 bitrate=   4.6kbits/s speed=0.171x elapsed=0:00:06.43    \nframe=   36 fps=5.2 q=63.0 size=       1KiB time=00:00:01.16 bitrate=   4.3kbits/s speed=0.167x elapsed=0:00:06.97    \nframe=   39 fps=5.2 q=63.0 size=       1KiB time=00:00:01.30 bitrate=   3.9kbits/s speed=0.173x elapsed=0:00:07.51    \nframe=   41 fps=5.1 q=52.0 size=       1KiB time=00:00:01.36 bitrate=   3.7kbits/s speed=0.17x elapsed=0:00:08.04    \nframe=   44 fps=5.1 q=63.0 size=       1KiB time=00:00:01.46 bitrate=   3.5kbits/s speed=0.171x elapsed=0:00:08.55    \nframe=   47 fps=5.2 q=51.0 size=       1KiB time=00:00:01.56 bitrate=   3.2kbits/s speed=0.172x elapsed=0:00:09.08    \nframe=   50 fps=5.2 q=63.0 size=       1KiB time=00:00:01.66 bitrate=   3.0kbits/s speed=0.173x elapsed=0:00:09.62    \nframe=   52 fps=5.1 q=62.0 size=       1KiB time=00:00:01.73 bitrate=   2.9kbits/s speed=0.171x elapsed=0:00:10.14    \nframe=   56 fps=5.2 q=62.0 size=       1KiB time=00:00:01.86 bitrate=   2.7kbits/s speed=0.175x elapsed=0:00:10.67    \nframe=   58 fps=5.2 q=62.0 size=       1KiB time=00:00:01.93 bitrate=   2.6kbits/s speed=0.172x elapsed=0:00:11.22    \nframe=   61 fps=5.2 q=62.0 size=       1KiB time=00:00:02.00 bitrate=   2.5kbits/s speed=0.17x elapsed=0:00:11.76    \nframe=   62 fps=5.0 q=63.0 size=       1KiB time=00:00:02.06 bitrate=   2.5kbits/s speed=0.167x elapsed=0:00:12.34    \nframe=   64 fps=4.9 q=63.0 size=       1KiB time=00:00:02.13 bitrate=   2.4kbits/s speed=0.165x elapsed=0:00:12.95    \nframe=   65 fps=4.8 q=50.0 size=       1KiB time=00:00:02.16 bitrate=   2.3kbits/s speed=0.159x elapsed=0:00:13.62    \nframe=   67 fps=4.7 q=62.0 size=       1KiB time=00:00:02.23 bitrate=   2.3kbits/s speed=0.157x elapsed=0:00:14.24    \nframe=   69 fps=4.7 q=62.0 size=       1KiB time=00:00:02.30 bitrate=   2.2kbits/s speed=0.155x elapsed=0:00:14.83    \nframe=   71 fps=4.6 q=50.0 size=       1KiB time=00:00:02.36 bitrate=   2.1kbits/s speed=0.154x elapsed=0:00:15.39    \nframe=   74 fps=4.6 q=62.0 size=       1KiB time=00:00:02.46 bitrate=   2.1kbits/s speed=0.155x elapsed=0:00:15.93    \nframe=   76 fps=4.6 q=62.0 size=       1KiB time=00:00:02.53 bitrate=   2.0kbits/s speed=0.153x elapsed=0:00:16.52    \nframe=   78 fps=4.6 q=62.0 size=       1KiB time=00:00:02.60 bitrate=   2.0kbits/s speed=0.152x elapsed=0:00:17.11    \nframe=   80 fps=4.5 q=62.0 size=       1KiB time=00:00:02.66 bitrate=   1.9kbits/s speed=0.151x elapsed=0:00:17.69    \nframe=   82 fps=4.5 q=62.0 size=       1KiB time=00:00:02.73 bitrate=   1.9kbits/s speed=0.15x elapsed=0:00:18.28    \nframe=   83 fps=4.4 q=48.0 size=       1KiB time=00:00:02.76 bitrate=   1.8kbits/s speed=0.147x elapsed=0:00:18.85    \nframe=   86 fps=4.4 q=62.0 size=       1KiB time=00:00:02.86 bitrate=   1.8kbits/s speed=0.148x elapsed=0:00:19.39    \nframe=   88 fps=4.4 q=62.0 size=       1KiB time=00:00:02.93 bitrate=   1.7kbits/s speed=0.147x elapsed=0:00:19.93    \nframe=   90 fps=4.4 q=62.0 size=       1KiB time=00:00:03.00 bitrate=   1.7kbits/s speed=0.147x elapsed=0:00:20.47    \nframe=   92 fps=4.4 q=62.0 size=       1KiB time=00:00:03.06 bitrate=   1.7kbits/s speed=0.146x elapsed=0:00:21.05    \nframe=   94 fps=4.4 q=62.0 size=       1KiB time=00:00:03.13 bitrate=   1.6kbits/s speed=0.145x elapsed=0:00:21.57    \nframe=   96 fps=4.3 q=62.0 size=       1KiB time=00:00:03.20 bitrate=   1.6kbits/s speed=0.145x elapsed=0:00:22.13    \nframe=   99 fps=4.4 q=62.0 size=       1KiB time=00:00:03.30 bitrate=   1.5kbits/s speed=0.146x elapsed=0:00:22.67    \nframe=  101 fps=4.3 q=49.0 size=       1KiB time=00:00:03.36 bitrate=   1.5kbits/s speed=0.145x elapsed=0:00:23.21    \nframe=  103 fps=4.3 q=62.0 size=       1KiB time=00:00:03.43 bitrate=   1.5kbits/s speed=0.144x elapsed=0:00:23.78    \nframe=  105 fps=4.3 q=62.0 size=       1KiB time=00:00:03.50 bitrate=   1.4kbits/s speed=0.144x elapsed=0:00:24.34    \nframe=  108 fps=4.3 q=62.0 size=       1KiB time=00:00:03.60 bitrate=   1.4kbits/s speed=0.145x elapsed=0:00:24.90    \nframe=  110 fps=4.3 q=61.0 size=       1KiB time=00:00:03.66 bitrate=   1.4kbits/s speed=0.144x elapsed=0:00:25.44    \nframe=  112 fps=4.3 q=61.0 size=       1KiB time=00:00:03.73 bitrate=   1.4kbits/s speed=0.144x elapsed=0:00:25.99    \nframe=  114 fps=4.3 q=61.0 size=       1KiB time=00:00:03.80 bitrate=   1.3kbits/s speed=0.143x elapsed=0:00:26.52    \nframe=  116 fps=4.3 q=61.0 size=       1KiB time=00:00:03.86 bitrate=   1.3kbits/s speed=0.143x elapsed=0:00:27.05    \nframe=  119 fps=4.3 q=48.0 size=       1KiB time=00:00:03.96 bitrate=   1.3kbits/s speed=0.144x elapsed=0:00:27.56    \nframe=  121 fps=4.3 q=62.0 size=       1KiB time=00:00:04.03 bitrate=   1.3kbits/s speed=0.144x elapsed=0:00:28.08    \nframe=  124 fps=4.3 q=49.0 size=       1KiB time=00:00:04.13 bitrate=   1.2kbits/s speed=0.144x elapsed=0:00:28.62    \nframe=  126 fps=4.3 q=61.0 size=       1KiB time=00:00:04.20 bitrate=   1.2kbits/s speed=0.144x elapsed=0:00:29.20    \nframe=  126 fps=4.2 q=61.0 size=       1KiB time=00:00:04.20 bitrate=   1.2kbits/s speed=0.141x elapsed=0:00:29.71    \nframe=  126 fps=4.2 q=61.0 size=       1KiB time=00:00:04.20 bitrate=   1.2kbits/s speed=0.139x elapsed=0:00:30.23    \nframe=  126 fps=4.1 q=61.0 size=       1KiB time=00:00:04.20 bitrate=   1.2kbits/s speed=0.137x elapsed=0:00:30.76    \nframe=  126 fps=4.0 q=61.0 size=       1KiB time=00:00:04.20 bitrate=   1.2kbits/s speed=0.134x elapsed=0:00:31.30    \nframe=  126 fps=4.0 q=61.0 size=       1KiB time=00:00:04.20 bitrate=   1.2kbits/s speed=0.132x elapsed=0:00:31.82    \nframe=  126 fps=3.9 q=61.0 size=       1KiB time=00:00:04.20 bitrate=   1.2kbits/s speed=0.13x elapsed=0:00:32.37    \nframe=  126 fps=3.8 q=61.0 size=       1KiB time=00:00:04.20 bitrate=   1.2kbits/s speed=0.128x elapsed=0:00:32.91    \nframe=  126 fps=3.8 q=61.0 size=       1KiB time=00:00:04.20 bitrate=   1.2kbits/s speed=0.126x elapsed=0:00:33.44    \n[out#0/webm @ 000001837d149700] video:1678KiB audio:0KiB subtitle:0KiB other streams:0KiB global headers:0KiB muxing overhead: 0.103095%\nframe=  150 fps=4.5 q=61.0 Lsize=    1679KiB time=00:00:05.00 bitrate=2751.4kbits/s speed=0.148x elapsed=0:00:33.70    \n",
  "seconds": 33.98298358917236,
  "probe_out": {}
}